<mxfile host="app.diagrams.net" modified="2023-10-13T13:15:24.210Z" agent="Mozilla/5.0 (Windows NT 10.0; Win64; x64) AppleWebKit/537.36 (KHTML, like Gecko) Chrome/116.0.5845.967 YaBrowser/23.9.1.967 Yowser/2.5 Safari/537.36" etag="ln2LGgc6qWv5zznpCrMR" version="21.5.0" type="device">
  <diagram id="C5RBs43oDa-KdzZeNtuy" name="Page-1">
    <mxGraphModel dx="6893" dy="1978" grid="1" gridSize="10" guides="1" tooltips="1" connect="1" arrows="1" fold="1" page="1" pageScale="1" pageWidth="827" pageHeight="1169" math="0" shadow="0">
      <root>
        <mxCell id="WIyWlLk6GJQsqaUBKTNV-0" />
        <mxCell id="WIyWlLk6GJQsqaUBKTNV-1" parent="WIyWlLk6GJQsqaUBKTNV-0" />
        <mxCell id="WNt9tTBzEYhnYvB0Ojxt-0" value="Game" style="swimlane;fontStyle=1;align=center;verticalAlign=top;childLayout=stackLayout;horizontal=1;startSize=26;horizontalStack=0;resizeParent=1;resizeLast=0;collapsible=1;marginBottom=0;rounded=0;shadow=0;strokeWidth=1;" parent="WIyWlLk6GJQsqaUBKTNV-1" vertex="1">
          <mxGeometry x="-740" y="1210" width="290" height="160" as="geometry">
            <mxRectangle x="230" y="140" width="160" height="26" as="alternateBounds" />
          </mxGeometry>
        </mxCell>
        <mxCell id="WNt9tTBzEYhnYvB0Ojxt-1" value="- mWorld: World&#xa;- mWindow: sf::RenderWindow&#xa;- TimePerFrame: static const sf::Time" style="text;align=left;verticalAlign=top;spacingLeft=4;spacingRight=4;overflow=hidden;rotatable=0;points=[[0,0.5],[1,0.5]];portConstraint=eastwest;" parent="WNt9tTBzEYhnYvB0Ojxt-0" vertex="1">
          <mxGeometry y="26" width="290" height="54" as="geometry" />
        </mxCell>
        <mxCell id="WNt9tTBzEYhnYvB0Ojxt-2" value="" style="line;html=1;strokeWidth=1;align=left;verticalAlign=middle;spacingTop=-1;spacingLeft=3;spacingRight=3;rotatable=0;labelPosition=right;points=[];portConstraint=eastwest;" parent="WNt9tTBzEYhnYvB0Ojxt-0" vertex="1">
          <mxGeometry y="80" width="290" height="8" as="geometry" />
        </mxCell>
        <mxCell id="WNt9tTBzEYhnYvB0Ojxt-3" value="+ &lt;b&gt;run&lt;/b&gt;(): void&lt;br&gt;- &lt;b&gt;processEvents&lt;/b&gt;(): void&lt;br&gt;- &lt;b&gt;render&lt;/b&gt;(): void&lt;br&gt;- &lt;b&gt;handlePlayerInput&lt;/b&gt;(sf::Keyboard::Key, bool): void" style="text;align=left;verticalAlign=top;spacingLeft=4;spacingRight=4;overflow=hidden;rotatable=0;points=[[0,0.5],[1,0.5]];portConstraint=eastwest;fontStyle=0;whiteSpace=wrap;html=1;" parent="WNt9tTBzEYhnYvB0Ojxt-0" vertex="1">
          <mxGeometry y="88" width="290" height="72" as="geometry" />
        </mxCell>
        <mxCell id="WNt9tTBzEYhnYvB0Ojxt-4" style="edgeStyle=orthogonalEdgeStyle;rounded=0;orthogonalLoop=1;jettySize=auto;html=1;entryX=0.5;entryY=0;entryDx=0;entryDy=0;endArrow=none;endFill=0;" parent="WIyWlLk6GJQsqaUBKTNV-1" source="WNt9tTBzEYhnYvB0Ojxt-5" target="WNt9tTBzEYhnYvB0Ojxt-0" edge="1">
          <mxGeometry relative="1" as="geometry" />
        </mxCell>
        <mxCell id="WNt9tTBzEYhnYvB0Ojxt-5" value="World" style="swimlane;fontStyle=1;align=center;verticalAlign=top;childLayout=stackLayout;horizontal=1;startSize=26;horizontalStack=0;resizeParent=1;resizeParentMax=0;resizeLast=0;collapsible=1;marginBottom=0;whiteSpace=wrap;html=1;" parent="WIyWlLk6GJQsqaUBKTNV-1" vertex="1">
          <mxGeometry x="-1110" y="1130" width="300" height="280" as="geometry" />
        </mxCell>
        <mxCell id="WNt9tTBzEYhnYvB0Ojxt-6" value="- mWindow: sf::RenderWindow&amp;amp;&lt;br&gt;- mWorldView: sf::View&lt;br&gt;- mTextures: TextureHolder&lt;br&gt;- mSceneGraph: SceneNode&lt;br&gt;- mRoomNodes: array&amp;lt;RoomNode*, RoomCount&amp;gt;&lt;br&gt;- room_storage: array&amp;lt;Ptr, RoomCount&amp;gt;&lt;br&gt;- mWorldBounds: sf::FloatRect&lt;br&gt;- mSpawnPosition: sf::Vector2f&lt;br&gt;- mPlayerAircraft: Aircraft*" style="text;strokeColor=none;fillColor=none;align=left;verticalAlign=top;spacingLeft=4;spacingRight=4;overflow=hidden;rotatable=0;points=[[0,0.5],[1,0.5]];portConstraint=eastwest;whiteSpace=wrap;html=1;" parent="WNt9tTBzEYhnYvB0Ojxt-5" vertex="1">
          <mxGeometry y="26" width="300" height="144" as="geometry" />
        </mxCell>
        <mxCell id="WNt9tTBzEYhnYvB0Ojxt-7" value="" style="line;strokeWidth=1;fillColor=none;align=left;verticalAlign=middle;spacingTop=-1;spacingLeft=3;spacingRight=3;rotatable=0;labelPosition=right;points=[];portConstraint=eastwest;strokeColor=inherit;" parent="WNt9tTBzEYhnYvB0Ojxt-5" vertex="1">
          <mxGeometry y="170" width="300" height="8" as="geometry" />
        </mxCell>
        <mxCell id="WNt9tTBzEYhnYvB0Ojxt-8" value="+ explicit&lt;b&gt; World&lt;/b&gt;(sf::RenderWindow&amp;amp;)&lt;br&gt;+ &lt;b&gt;update&lt;/b&gt;(sf::Time): void&lt;br&gt;+ &lt;b&gt;draw&lt;/b&gt;(): void&lt;br&gt;- &lt;b&gt;loadTextures&lt;/b&gt;(): void&lt;br&gt;- &lt;b&gt;buildScene&lt;/b&gt;(): void&lt;br&gt;-&amp;nbsp;&lt;b&gt;changeRoom&lt;/b&gt;(Rooms prev, Rooms new) : void" style="text;strokeColor=none;fillColor=none;align=left;verticalAlign=top;spacingLeft=4;spacingRight=4;overflow=hidden;rotatable=0;points=[[0,0.5],[1,0.5]];portConstraint=eastwest;whiteSpace=wrap;html=1;" parent="WNt9tTBzEYhnYvB0Ojxt-5" vertex="1">
          <mxGeometry y="178" width="300" height="102" as="geometry" />
        </mxCell>
        <mxCell id="WNt9tTBzEYhnYvB0Ojxt-9" style="edgeStyle=orthogonalEdgeStyle;rounded=0;orthogonalLoop=1;jettySize=auto;html=1;" parent="WIyWlLk6GJQsqaUBKTNV-1" source="WNt9tTBzEYhnYvB0Ojxt-11" target="WNt9tTBzEYhnYvB0Ojxt-46" edge="1">
          <mxGeometry relative="1" as="geometry">
            <Array as="points">
              <mxPoint x="-1319" y="400" />
              <mxPoint x="-1509" y="400" />
            </Array>
          </mxGeometry>
        </mxCell>
        <mxCell id="WNt9tTBzEYhnYvB0Ojxt-10" style="edgeStyle=orthogonalEdgeStyle;rounded=0;orthogonalLoop=1;jettySize=auto;html=1;entryX=0.5;entryY=0;entryDx=0;entryDy=0;" parent="WIyWlLk6GJQsqaUBKTNV-1" target="WNt9tTBzEYhnYvB0Ojxt-22" edge="1">
          <mxGeometry relative="1" as="geometry">
            <mxPoint x="-1319" y="400" as="sourcePoint" />
          </mxGeometry>
        </mxCell>
        <mxCell id="WNt9tTBzEYhnYvB0Ojxt-11" value="SceneNode" style="swimlane;fontStyle=1;align=center;verticalAlign=top;childLayout=stackLayout;horizontal=1;startSize=26;horizontalStack=0;resizeParent=1;resizeParentMax=0;resizeLast=0;collapsible=1;marginBottom=0;whiteSpace=wrap;html=1;" parent="WIyWlLk6GJQsqaUBKTNV-1" vertex="1">
          <mxGeometry x="-1522" y="120" width="405" height="210" as="geometry" />
        </mxCell>
        <mxCell id="WNt9tTBzEYhnYvB0Ojxt-12" value="using Ptr = unique_ptr&amp;lt;SceneNode&amp;gt;&lt;br&gt;- mChildren: vector&amp;lt;Ptr&amp;gt;&lt;br&gt;- mParent: Scene Node*" style="text;strokeColor=none;fillColor=none;align=left;verticalAlign=top;spacingLeft=4;spacingRight=4;overflow=hidden;rotatable=0;points=[[0,0.5],[1,0.5]];portConstraint=eastwest;whiteSpace=wrap;html=1;" parent="WNt9tTBzEYhnYvB0Ojxt-11" vertex="1">
          <mxGeometry y="26" width="405" height="54" as="geometry" />
        </mxCell>
        <mxCell id="WNt9tTBzEYhnYvB0Ojxt-13" value="" style="line;strokeWidth=1;fillColor=none;align=left;verticalAlign=middle;spacingTop=-1;spacingLeft=3;spacingRight=3;rotatable=0;labelPosition=right;points=[];portConstraint=eastwest;strokeColor=inherit;" parent="WNt9tTBzEYhnYvB0Ojxt-11" vertex="1">
          <mxGeometry y="80" width="405" height="8" as="geometry" />
        </mxCell>
        <mxCell id="WNt9tTBzEYhnYvB0Ojxt-14" value="+ &lt;b&gt;attachChild&lt;/b&gt;(Ptr): void&lt;br&gt;+ &lt;b&gt;detachChild&lt;/b&gt;(const SceneNode&amp;amp;): Ptr&lt;br&gt;+ &lt;b&gt;update&lt;/b&gt;(sf::Time): void&lt;br&gt;- &lt;b&gt;draw&lt;/b&gt;(sf::RenderTarget&amp;amp;, sf::RenderStates) const override final: void&lt;br&gt;- virtual &lt;b&gt;drawCurrent&lt;/b&gt;(sf::RenderTarget&amp;amp;, sf::RenderStates) const: void&lt;br&gt;- virtual &lt;b&gt;updateCurrent&lt;/b&gt;(sf::time): void&lt;br&gt;- &lt;b&gt;getWorldTramsform&lt;/b&gt;() const: sf::Transform&lt;br&gt;- &lt;b&gt;getWorldPosition&lt;/b&gt;() const: sf::Vector2f" style="text;strokeColor=none;fillColor=none;align=left;verticalAlign=top;spacingLeft=4;spacingRight=4;overflow=hidden;rotatable=0;points=[[0,0.5],[1,0.5]];portConstraint=eastwest;whiteSpace=wrap;html=1;" parent="WNt9tTBzEYhnYvB0Ojxt-11" vertex="1">
          <mxGeometry y="88" width="405" height="122" as="geometry" />
        </mxCell>
        <mxCell id="WNt9tTBzEYhnYvB0Ojxt-15" style="edgeStyle=orthogonalEdgeStyle;rounded=0;orthogonalLoop=1;jettySize=auto;html=1;entryX=0.5;entryY=0;entryDx=0;entryDy=0;" parent="WIyWlLk6GJQsqaUBKTNV-1" source="WNt9tTBzEYhnYvB0Ojxt-16" target="WNt9tTBzEYhnYvB0Ojxt-11" edge="1">
          <mxGeometry relative="1" as="geometry" />
        </mxCell>
        <mxCell id="WNt9tTBzEYhnYvB0Ojxt-16" value="&lt;b&gt;Drawable&lt;/b&gt;" style="html=1;whiteSpace=wrap;" parent="WIyWlLk6GJQsqaUBKTNV-1" vertex="1">
          <mxGeometry x="-1494.5" y="10" width="110" height="50" as="geometry" />
        </mxCell>
        <mxCell id="WNt9tTBzEYhnYvB0Ojxt-17" style="edgeStyle=orthogonalEdgeStyle;rounded=0;orthogonalLoop=1;jettySize=auto;html=1;" parent="WIyWlLk6GJQsqaUBKTNV-1" source="WNt9tTBzEYhnYvB0Ojxt-18" target="WNt9tTBzEYhnYvB0Ojxt-11" edge="1">
          <mxGeometry relative="1" as="geometry" />
        </mxCell>
        <mxCell id="WNt9tTBzEYhnYvB0Ojxt-18" value="&lt;b&gt;NonCopyable&lt;/b&gt;" style="html=1;whiteSpace=wrap;" parent="WIyWlLk6GJQsqaUBKTNV-1" vertex="1">
          <mxGeometry x="-1254.5" y="10" width="110" height="50" as="geometry" />
        </mxCell>
        <mxCell id="WNt9tTBzEYhnYvB0Ojxt-19" style="edgeStyle=orthogonalEdgeStyle;rounded=0;orthogonalLoop=1;jettySize=auto;html=1;entryX=0.5;entryY=0;entryDx=0;entryDy=0;" parent="WIyWlLk6GJQsqaUBKTNV-1" source="WNt9tTBzEYhnYvB0Ojxt-20" target="WNt9tTBzEYhnYvB0Ojxt-11" edge="1">
          <mxGeometry relative="1" as="geometry">
            <mxPoint x="-1304.5" y="120" as="targetPoint" />
            <Array as="points" />
          </mxGeometry>
        </mxCell>
        <mxCell id="WNt9tTBzEYhnYvB0Ojxt-20" value="&lt;b&gt;Transformable&lt;/b&gt;" style="html=1;whiteSpace=wrap;" parent="WIyWlLk6GJQsqaUBKTNV-1" vertex="1">
          <mxGeometry x="-1374.5" y="10" width="110" height="50" as="geometry" />
        </mxCell>
        <mxCell id="WNt9tTBzEYhnYvB0Ojxt-21" style="edgeStyle=orthogonalEdgeStyle;rounded=0;orthogonalLoop=1;jettySize=auto;html=1;entryX=0.5;entryY=0;entryDx=0;entryDy=0;" parent="WIyWlLk6GJQsqaUBKTNV-1" source="WNt9tTBzEYhnYvB0Ojxt-22" target="WNt9tTBzEYhnYvB0Ojxt-27" edge="1">
          <mxGeometry relative="1" as="geometry" />
        </mxCell>
        <mxCell id="WNt9tTBzEYhnYvB0Ojxt-22" value="Entity" style="swimlane;fontStyle=1;align=center;verticalAlign=top;childLayout=stackLayout;horizontal=1;startSize=26;horizontalStack=0;resizeParent=1;resizeParentMax=0;resizeLast=0;collapsible=1;marginBottom=0;whiteSpace=wrap;html=1;" parent="WIyWlLk6GJQsqaUBKTNV-1" vertex="1">
          <mxGeometry x="-1070" y="470" width="230" height="130" as="geometry" />
        </mxCell>
        <mxCell id="WNt9tTBzEYhnYvB0Ojxt-23" value="- mVelocity: sf::Vector2f" style="text;strokeColor=none;fillColor=none;align=left;verticalAlign=top;spacingLeft=4;spacingRight=4;overflow=hidden;rotatable=0;points=[[0,0.5],[1,0.5]];portConstraint=eastwest;whiteSpace=wrap;html=1;" parent="WNt9tTBzEYhnYvB0Ojxt-22" vertex="1">
          <mxGeometry y="26" width="230" height="26" as="geometry" />
        </mxCell>
        <mxCell id="WNt9tTBzEYhnYvB0Ojxt-24" value="" style="line;strokeWidth=1;fillColor=none;align=left;verticalAlign=middle;spacingTop=-1;spacingLeft=3;spacingRight=3;rotatable=0;labelPosition=right;points=[];portConstraint=eastwest;strokeColor=inherit;" parent="WNt9tTBzEYhnYvB0Ojxt-22" vertex="1">
          <mxGeometry y="52" width="230" height="8" as="geometry" />
        </mxCell>
        <mxCell id="WNt9tTBzEYhnYvB0Ojxt-25" value="+ &lt;b&gt;setVelocity&lt;/b&gt;(sf::Vector2f): void&lt;br&gt;+ &lt;b&gt;setVelocity&lt;/b&gt;(float, float): void&lt;br&gt;+ &lt;b&gt;getVelocity&lt;/b&gt;() const: sf::Vector2f&lt;br&gt;- override &lt;b&gt;updateCurrent&lt;/b&gt;(sf::Time): void" style="text;strokeColor=none;fillColor=none;align=left;verticalAlign=top;spacingLeft=4;spacingRight=4;overflow=hidden;rotatable=0;points=[[0,0.5],[1,0.5]];portConstraint=eastwest;whiteSpace=wrap;html=1;" parent="WNt9tTBzEYhnYvB0Ojxt-22" vertex="1">
          <mxGeometry y="60" width="230" height="70" as="geometry" />
        </mxCell>
        <mxCell id="WNt9tTBzEYhnYvB0Ojxt-26" style="edgeStyle=orthogonalEdgeStyle;rounded=0;orthogonalLoop=1;jettySize=auto;html=1;entryX=0.5;entryY=0;entryDx=0;entryDy=0;endArrow=none;endFill=0;" parent="WIyWlLk6GJQsqaUBKTNV-1" source="WNt9tTBzEYhnYvB0Ojxt-27" target="WNt9tTBzEYhnYvB0Ojxt-5" edge="1">
          <mxGeometry relative="1" as="geometry">
            <Array as="points">
              <mxPoint x="-960" y="790" />
              <mxPoint x="-960" y="790" />
            </Array>
          </mxGeometry>
        </mxCell>
        <mxCell id="WNt9tTBzEYhnYvB0Ojxt-27" value="Aircraft" style="swimlane;fontStyle=1;align=center;verticalAlign=top;childLayout=stackLayout;horizontal=1;startSize=26;horizontalStack=0;resizeParent=1;resizeParentMax=0;resizeLast=0;collapsible=1;marginBottom=0;whiteSpace=wrap;html=1;" parent="WIyWlLk6GJQsqaUBKTNV-1" vertex="1">
          <mxGeometry x="-1155" y="650" width="400" height="110" as="geometry" />
        </mxCell>
        <mxCell id="WNt9tTBzEYhnYvB0Ojxt-28" value="- mType: Type&lt;br&gt;- mSprite: sf::Sprite" style="text;strokeColor=none;fillColor=none;align=left;verticalAlign=top;spacingLeft=4;spacingRight=4;overflow=hidden;rotatable=0;points=[[0,0.5],[1,0.5]];portConstraint=eastwest;whiteSpace=wrap;html=1;" parent="WNt9tTBzEYhnYvB0Ojxt-27" vertex="1">
          <mxGeometry y="26" width="400" height="34" as="geometry" />
        </mxCell>
        <mxCell id="WNt9tTBzEYhnYvB0Ojxt-29" value="" style="line;strokeWidth=1;fillColor=none;align=left;verticalAlign=middle;spacingTop=-1;spacingLeft=3;spacingRight=3;rotatable=0;labelPosition=right;points=[];portConstraint=eastwest;strokeColor=inherit;" parent="WNt9tTBzEYhnYvB0Ojxt-27" vertex="1">
          <mxGeometry y="60" width="400" height="8" as="geometry" />
        </mxCell>
        <mxCell id="WNt9tTBzEYhnYvB0Ojxt-30" value="+ &lt;b&gt;Aircraft&lt;/b&gt;(Type, const TextureHolder&amp;amp;)&lt;br&gt;+ override &lt;b&gt;drawCurrent&lt;/b&gt;(sf::RenderTarget, sf::RenderStates) const: void" style="text;strokeColor=none;fillColor=none;align=left;verticalAlign=top;spacingLeft=4;spacingRight=4;overflow=hidden;rotatable=0;points=[[0,0.5],[1,0.5]];portConstraint=eastwest;whiteSpace=wrap;html=1;" parent="WNt9tTBzEYhnYvB0Ojxt-27" vertex="1">
          <mxGeometry y="68" width="400" height="42" as="geometry" />
        </mxCell>
        <mxCell id="WNt9tTBzEYhnYvB0Ojxt-31" style="edgeStyle=orthogonalEdgeStyle;rounded=0;orthogonalLoop=1;jettySize=auto;html=1;endArrow=none;endFill=0;entryX=-0.001;entryY=0.286;entryDx=0;entryDy=0;entryPerimeter=0;" parent="WIyWlLk6GJQsqaUBKTNV-1" source="WNt9tTBzEYhnYvB0Ojxt-32" target="WNt9tTBzEYhnYvB0Ojxt-28" edge="1">
          <mxGeometry relative="1" as="geometry">
            <mxPoint x="-921" y="454" as="targetPoint" />
          </mxGeometry>
        </mxCell>
        <mxCell id="WNt9tTBzEYhnYvB0Ojxt-32" value="enum &lt;b&gt;Type&lt;/b&gt;" style="swimlane;fontStyle=0;childLayout=stackLayout;horizontal=1;startSize=26;fillColor=none;horizontalStack=0;resizeParent=1;resizeParentMax=0;resizeLast=0;collapsible=1;marginBottom=0;whiteSpace=wrap;html=1;" parent="WIyWlLk6GJQsqaUBKTNV-1" vertex="1">
          <mxGeometry x="-1250" y="550" width="140" height="70" as="geometry" />
        </mxCell>
        <mxCell id="WNt9tTBzEYhnYvB0Ojxt-33" value="Eagle&lt;br&gt;Raptor" style="text;strokeColor=none;fillColor=none;align=left;verticalAlign=top;spacingLeft=4;spacingRight=4;overflow=hidden;rotatable=0;points=[[0,0.5],[1,0.5]];portConstraint=eastwest;whiteSpace=wrap;html=1;" parent="WNt9tTBzEYhnYvB0Ojxt-32" vertex="1">
          <mxGeometry y="26" width="140" height="44" as="geometry" />
        </mxCell>
        <mxCell id="WNt9tTBzEYhnYvB0Ojxt-34" style="edgeStyle=orthogonalEdgeStyle;rounded=0;orthogonalLoop=1;jettySize=auto;html=1;entryX=1.004;entryY=0.778;entryDx=0;entryDy=0;entryPerimeter=0;endArrow=none;endFill=0;exitX=0.5;exitY=0;exitDx=0;exitDy=0;" parent="WIyWlLk6GJQsqaUBKTNV-1" source="WNt9tTBzEYhnYvB0Ojxt-36" target="WNt9tTBzEYhnYvB0Ojxt-42" edge="1">
          <mxGeometry relative="1" as="geometry" />
        </mxCell>
        <mxCell id="WNt9tTBzEYhnYvB0Ojxt-35" style="edgeStyle=orthogonalEdgeStyle;rounded=0;orthogonalLoop=1;jettySize=auto;html=1;entryX=0.5;entryY=0;entryDx=0;entryDy=0;endArrow=none;endFill=0;exitX=0.588;exitY=1;exitDx=0;exitDy=0;exitPerimeter=0;" parent="WIyWlLk6GJQsqaUBKTNV-1" source="WNt9tTBzEYhnYvB0Ojxt-39" target="WNt9tTBzEYhnYvB0Ojxt-5" edge="1">
          <mxGeometry relative="1" as="geometry" />
        </mxCell>
        <mxCell id="WNt9tTBzEYhnYvB0Ojxt-36" value="&lt;span style=&quot;font-weight: normal;&quot;&gt;template&amp;lt;class&lt;/span&gt; Resource, &lt;span style=&quot;font-weight: normal;&quot;&gt;class&lt;/span&gt; Identifer&amp;gt;&lt;br&gt;ResourceHolder" style="swimlane;fontStyle=1;align=center;verticalAlign=top;childLayout=stackLayout;horizontal=1;startSize=40;horizontalStack=0;resizeParent=1;resizeParentMax=0;resizeLast=0;collapsible=1;marginBottom=0;whiteSpace=wrap;html=1;" parent="WIyWlLk6GJQsqaUBKTNV-1" vertex="1">
          <mxGeometry x="-590" y="650" width="340" height="160" as="geometry">
            <mxRectangle x="1010" y="20" width="280" height="40" as="alternateBounds" />
          </mxGeometry>
        </mxCell>
        <mxCell id="WNt9tTBzEYhnYvB0Ojxt-37" value="- mResourceMap: map&amp;lt;Identifier, unique_ptr&amp;lt;Resource&amp;gt;&amp;gt;" style="text;strokeColor=none;fillColor=none;align=left;verticalAlign=top;spacingLeft=4;spacingRight=4;overflow=hidden;rotatable=0;points=[[0,0.5],[1,0.5]];portConstraint=eastwest;whiteSpace=wrap;html=1;" parent="WNt9tTBzEYhnYvB0Ojxt-36" vertex="1">
          <mxGeometry y="40" width="340" height="30" as="geometry" />
        </mxCell>
        <mxCell id="WNt9tTBzEYhnYvB0Ojxt-38" value="" style="line;strokeWidth=1;fillColor=none;align=left;verticalAlign=middle;spacingTop=-1;spacingLeft=3;spacingRight=3;rotatable=0;labelPosition=right;points=[];portConstraint=eastwest;strokeColor=inherit;" parent="WNt9tTBzEYhnYvB0Ojxt-36" vertex="1">
          <mxGeometry y="70" width="340" height="8" as="geometry" />
        </mxCell>
        <mxCell id="WNt9tTBzEYhnYvB0Ojxt-39" value="+ &lt;b&gt;load&lt;/b&gt;(Identifier, const string&amp;amp; filename): void&lt;br&gt;+ template&amp;lt;&lt;span style=&quot;border-color: var(--border-color);&quot;&gt;Parameter&lt;/span&gt;&amp;gt;&amp;nbsp;&lt;b&gt;load&lt;/b&gt;(Identifier, const string&amp;amp; filename&lt;br&gt;&lt;span style=&quot;white-space: pre;&quot;&gt; &lt;/span&gt;&lt;span style=&quot;white-space: pre;&quot;&gt; &lt;/span&gt;&lt;span style=&quot;white-space: pre;&quot;&gt; &lt;/span&gt;&lt;span style=&quot;white-space: pre;&quot;&gt; &lt;/span&gt;&lt;span style=&quot;white-space: pre;&quot;&gt; &lt;/span&gt;&amp;nbsp; &amp;nbsp; &amp;nbsp; &amp;nbsp;const Parameter&amp;amp;): void&lt;br&gt;+ &lt;b&gt;get&lt;/b&gt;(Identifier): Resourse&amp;amp;&lt;br&gt;+ &lt;b&gt;get&lt;/b&gt;(Identifier) const: const Resource&amp;amp;" style="text;strokeColor=none;fillColor=none;align=left;verticalAlign=top;spacingLeft=4;spacingRight=4;overflow=hidden;rotatable=0;points=[[0,0.5],[1,0.5]];portConstraint=eastwest;whiteSpace=wrap;html=1;" parent="WNt9tTBzEYhnYvB0Ojxt-36" vertex="1">
          <mxGeometry y="78" width="340" height="82" as="geometry" />
        </mxCell>
        <mxCell id="WNt9tTBzEYhnYvB0Ojxt-40" style="edgeStyle=orthogonalEdgeStyle;rounded=0;orthogonalLoop=1;jettySize=auto;html=1;entryX=1.005;entryY=0.102;entryDx=0;entryDy=0;entryPerimeter=0;endArrow=none;endFill=0;" parent="WIyWlLk6GJQsqaUBKTNV-1" source="WNt9tTBzEYhnYvB0Ojxt-41" target="WNt9tTBzEYhnYvB0Ojxt-30" edge="1">
          <mxGeometry relative="1" as="geometry" />
        </mxCell>
        <mxCell id="WNt9tTBzEYhnYvB0Ojxt-41" value="ResourceIdentifiers.h" style="swimlane;fontStyle=0;childLayout=stackLayout;horizontal=1;startSize=26;fillColor=none;horizontalStack=0;resizeParent=1;resizeParentMax=0;resizeLast=0;collapsible=1;marginBottom=0;whiteSpace=wrap;html=1;" parent="WIyWlLk6GJQsqaUBKTNV-1" vertex="1">
          <mxGeometry x="-810" y="470" width="240" height="146" as="geometry" />
        </mxCell>
        <mxCell id="WNt9tTBzEYhnYvB0Ojxt-42" value="&lt;div style=&quot;&quot;&gt;&lt;span style=&quot;background-color: initial;&quot;&gt;using TextureHolder =&lt;/span&gt;&lt;/div&gt;ResourceHolder&amp;lt;sf::Texture, Textures::ID&amp;gt;" style="text;html=1;align=left;verticalAlign=middle;resizable=0;points=[];autosize=1;strokeColor=none;fillColor=none;" parent="WNt9tTBzEYhnYvB0Ojxt-41" vertex="1">
          <mxGeometry y="26" width="240" height="40" as="geometry" />
        </mxCell>
        <mxCell id="WNt9tTBzEYhnYvB0Ojxt-43" value="enum &lt;b&gt;Textures::ID&lt;/b&gt;" style="swimlane;fontStyle=0;childLayout=stackLayout;horizontal=1;startSize=26;fillColor=none;horizontalStack=0;resizeParent=1;resizeParentMax=0;resizeLast=0;collapsible=1;marginBottom=0;whiteSpace=wrap;html=1;" parent="WNt9tTBzEYhnYvB0Ojxt-41" vertex="1">
          <mxGeometry y="66" width="240" height="80" as="geometry" />
        </mxCell>
        <mxCell id="WNt9tTBzEYhnYvB0Ojxt-44" value="Eagle&lt;br&gt;Raptor&lt;br&gt;Desert" style="text;strokeColor=none;fillColor=none;align=left;verticalAlign=top;spacingLeft=4;spacingRight=4;overflow=hidden;rotatable=0;points=[[0,0.5],[1,0.5]];portConstraint=eastwest;whiteSpace=wrap;html=1;" parent="WNt9tTBzEYhnYvB0Ojxt-43" vertex="1">
          <mxGeometry y="26" width="240" height="54" as="geometry" />
        </mxCell>
        <mxCell id="WNt9tTBzEYhnYvB0Ojxt-45" style="edgeStyle=orthogonalEdgeStyle;rounded=0;orthogonalLoop=1;jettySize=auto;html=1;endArrow=none;endFill=0;exitX=0.532;exitY=1.071;exitDx=0;exitDy=0;exitPerimeter=0;" parent="WIyWlLk6GJQsqaUBKTNV-1" source="WNt9tTBzEYhnYvB0Ojxt-49" edge="1">
          <mxGeometry relative="1" as="geometry">
            <mxPoint x="-960" y="870" as="targetPoint" />
            <Array as="points">
              <mxPoint x="-1496" y="590" />
              <mxPoint x="-1497" y="970" />
              <mxPoint x="-960" y="970" />
            </Array>
            <mxPoint x="-1450" y="590" as="sourcePoint" />
          </mxGeometry>
        </mxCell>
        <mxCell id="WNt9tTBzEYhnYvB0Ojxt-46" value="SpriteNode" style="swimlane;fontStyle=1;align=center;verticalAlign=top;childLayout=stackLayout;horizontal=1;startSize=26;horizontalStack=0;resizeParent=1;resizeParentMax=0;resizeLast=0;collapsible=1;marginBottom=0;whiteSpace=wrap;html=1;" parent="WIyWlLk6GJQsqaUBKTNV-1" vertex="1">
          <mxGeometry x="-1710" y="430" width="402" height="130" as="geometry" />
        </mxCell>
        <mxCell id="WNt9tTBzEYhnYvB0Ojxt-47" value="- mSprite: sf::Sprite" style="text;strokeColor=none;fillColor=none;align=left;verticalAlign=top;spacingLeft=4;spacingRight=4;overflow=hidden;rotatable=0;points=[[0,0.5],[1,0.5]];portConstraint=eastwest;whiteSpace=wrap;html=1;" parent="WNt9tTBzEYhnYvB0Ojxt-46" vertex="1">
          <mxGeometry y="26" width="402" height="26" as="geometry" />
        </mxCell>
        <mxCell id="WNt9tTBzEYhnYvB0Ojxt-48" value="" style="line;strokeWidth=1;fillColor=none;align=left;verticalAlign=middle;spacingTop=-1;spacingLeft=3;spacingRight=3;rotatable=0;labelPosition=right;points=[];portConstraint=eastwest;strokeColor=inherit;" parent="WNt9tTBzEYhnYvB0Ojxt-46" vertex="1">
          <mxGeometry y="52" width="402" height="8" as="geometry" />
        </mxCell>
        <mxCell id="WNt9tTBzEYhnYvB0Ojxt-49" value="+ explicit&lt;b&gt; SpriteNode&lt;/b&gt;(const sf::Texture&amp;amp;)&lt;br&gt;+ &lt;b&gt;SpriteNode&lt;/b&gt;(const sf::Texture&amp;amp;, const sf::IntRect&amp;amp;)&lt;br&gt;- override &lt;b&gt;drawCurrent&lt;/b&gt;(sf::RenderTarget, sf::RenderStates) const: void" style="text;strokeColor=none;fillColor=none;align=left;verticalAlign=top;spacingLeft=4;spacingRight=4;overflow=hidden;rotatable=0;points=[[0,0.5],[1,0.5]];portConstraint=eastwest;whiteSpace=wrap;html=1;" parent="WNt9tTBzEYhnYvB0Ojxt-46" vertex="1">
          <mxGeometry y="60" width="402" height="70" as="geometry" />
        </mxCell>
        <mxCell id="WNt9tTBzEYhnYvB0Ojxt-50" style="edgeStyle=orthogonalEdgeStyle;rounded=0;orthogonalLoop=1;jettySize=auto;html=1;entryX=0;entryY=0.5;entryDx=0;entryDy=0;endArrow=none;endFill=0;exitX=0.993;exitY=0.15;exitDx=0;exitDy=0;exitPerimeter=0;" parent="WIyWlLk6GJQsqaUBKTNV-1" source="WNt9tTBzEYhnYvB0Ojxt-51" target="WNt9tTBzEYhnYvB0Ojxt-6" edge="1">
          <mxGeometry relative="1" as="geometry">
            <mxPoint x="-1150" y="1170" as="sourcePoint" />
            <Array as="points">
              <mxPoint x="-1130" y="1142" />
              <mxPoint x="-1130" y="1228" />
            </Array>
          </mxGeometry>
        </mxCell>
        <mxCell id="WNt9tTBzEYhnYvB0Ojxt-51" value="enum &lt;b&gt;Rooms&lt;/b&gt;" style="swimlane;fontStyle=0;childLayout=stackLayout;horizontal=1;startSize=26;fillColor=none;horizontalStack=0;resizeParent=1;resizeParentMax=0;resizeLast=0;collapsible=1;marginBottom=0;whiteSpace=wrap;html=1;" parent="WIyWlLk6GJQsqaUBKTNV-1" vertex="1">
          <mxGeometry x="-1295" y="1130" width="140" height="80" as="geometry" />
        </mxCell>
        <mxCell id="WNt9tTBzEYhnYvB0Ojxt-52" value="DesertRoom&lt;br&gt;LavaRoom&lt;br&gt;RoomCount" style="text;strokeColor=none;fillColor=none;align=left;verticalAlign=top;spacingLeft=4;spacingRight=4;overflow=hidden;rotatable=0;points=[[0,0.5],[1,0.5]];portConstraint=eastwest;whiteSpace=wrap;html=1;" parent="WNt9tTBzEYhnYvB0Ojxt-51" vertex="1">
          <mxGeometry y="26" width="140" height="54" as="geometry" />
        </mxCell>
        <mxCell id="WNt9tTBzEYhnYvB0Ojxt-53" value="RoomNode" style="swimlane;fontStyle=1;align=center;verticalAlign=top;childLayout=stackLayout;horizontal=1;startSize=26;horizontalStack=0;resizeParent=1;resizeParentMax=0;resizeLast=0;collapsible=1;marginBottom=0;whiteSpace=wrap;html=1;" parent="WIyWlLk6GJQsqaUBKTNV-1" vertex="1">
          <mxGeometry x="-2175" y="780" width="290" height="120" as="geometry" />
        </mxCell>
        <mxCell id="WNt9tTBzEYhnYvB0Ojxt-54" value="- mSceneLayers: array&amp;lt;SceneNode*, LayerCount&amp;gt;" style="text;strokeColor=none;fillColor=none;align=left;verticalAlign=top;spacingLeft=4;spacingRight=4;overflow=hidden;rotatable=0;points=[[0,0.5],[1,0.5]];portConstraint=eastwest;whiteSpace=wrap;html=1;" parent="WNt9tTBzEYhnYvB0Ojxt-53" vertex="1">
          <mxGeometry y="26" width="290" height="26" as="geometry" />
        </mxCell>
        <mxCell id="WNt9tTBzEYhnYvB0Ojxt-55" value="" style="line;strokeWidth=1;fillColor=none;align=left;verticalAlign=middle;spacingTop=-1;spacingLeft=3;spacingRight=3;rotatable=0;labelPosition=right;points=[];portConstraint=eastwest;strokeColor=inherit;" parent="WNt9tTBzEYhnYvB0Ojxt-53" vertex="1">
          <mxGeometry y="52" width="290" height="8" as="geometry" />
        </mxCell>
        <mxCell id="WNt9tTBzEYhnYvB0Ojxt-56" value="+ &lt;b&gt;buildRoom&lt;/b&gt;(sf::Texture&amp;amp;, sf::FloatRect) : void&lt;br&gt;+ &lt;b&gt;setPlayer&lt;/b&gt;(Ptr) : void&lt;br&gt;+ &lt;b&gt;getPlayer&lt;/b&gt;() : Ptr" style="text;strokeColor=none;fillColor=none;align=left;verticalAlign=top;spacingLeft=4;spacingRight=4;overflow=hidden;rotatable=0;points=[[0,0.5],[1,0.5]];portConstraint=eastwest;whiteSpace=wrap;html=1;" parent="WNt9tTBzEYhnYvB0Ojxt-53" vertex="1">
          <mxGeometry y="60" width="290" height="60" as="geometry" />
        </mxCell>
        <mxCell id="WNt9tTBzEYhnYvB0Ojxt-57" style="edgeStyle=orthogonalEdgeStyle;rounded=0;orthogonalLoop=1;jettySize=auto;html=1;entryX=0.5;entryY=0;entryDx=0;entryDy=0;" parent="WIyWlLk6GJQsqaUBKTNV-1" target="WNt9tTBzEYhnYvB0Ojxt-53" edge="1">
          <mxGeometry relative="1" as="geometry">
            <mxPoint x="-1319" y="400" as="sourcePoint" />
          </mxGeometry>
        </mxCell>
        <mxCell id="WNt9tTBzEYhnYvB0Ojxt-58" style="edgeStyle=orthogonalEdgeStyle;rounded=0;orthogonalLoop=1;jettySize=auto;html=1;entryX=0.5;entryY=0;entryDx=0;entryDy=0;endArrow=none;endFill=0;exitX=0.497;exitY=1.019;exitDx=0;exitDy=0;exitPerimeter=0;" parent="WIyWlLk6GJQsqaUBKTNV-1" source="WNt9tTBzEYhnYvB0Ojxt-56" target="WNt9tTBzEYhnYvB0Ojxt-5" edge="1">
          <mxGeometry relative="1" as="geometry">
            <Array as="points">
              <mxPoint x="-2031" y="970" />
              <mxPoint x="-960" y="970" />
            </Array>
            <mxPoint x="-1956" y="620" as="sourcePoint" />
          </mxGeometry>
        </mxCell>
        <mxCell id="dQN3qtKWZheF_oefbslF-3" style="rounded=0;orthogonalLoop=1;jettySize=auto;html=1;entryX=0.5;entryY=0;entryDx=0;entryDy=0;" parent="WIyWlLk6GJQsqaUBKTNV-1" source="dQN3qtKWZheF_oefbslF-0" target="dQN3qtKWZheF_oefbslF-1" edge="1">
          <mxGeometry relative="1" as="geometry" />
        </mxCell>
        <mxCell id="dQN3qtKWZheF_oefbslF-4" style="rounded=0;orthogonalLoop=1;jettySize=auto;html=1;entryX=0.5;entryY=0;entryDx=0;entryDy=0;dashed=1;" parent="WIyWlLk6GJQsqaUBKTNV-1" source="dQN3qtKWZheF_oefbslF-0" target="dQN3qtKWZheF_oefbslF-2" edge="1">
          <mxGeometry relative="1" as="geometry">
            <mxPoint x="-2770" y="230" as="targetPoint" />
          </mxGeometry>
        </mxCell>
        <mxCell id="dQN3qtKWZheF_oefbslF-0" value="mSceneGraph" style="ellipse;whiteSpace=wrap;html=1;" parent="WIyWlLk6GJQsqaUBKTNV-1" vertex="1">
          <mxGeometry x="-2920" y="40" width="120" height="80" as="geometry" />
        </mxCell>
        <mxCell id="dQN3qtKWZheF_oefbslF-6" style="rounded=0;orthogonalLoop=1;jettySize=auto;html=1;entryX=0.5;entryY=0;entryDx=0;entryDy=0;" parent="WIyWlLk6GJQsqaUBKTNV-1" source="dQN3qtKWZheF_oefbslF-1" target="dQN3qtKWZheF_oefbslF-5" edge="1">
          <mxGeometry relative="1" as="geometry" />
        </mxCell>
        <mxCell id="dQN3qtKWZheF_oefbslF-1" value="DesertRoom&lt;br&gt;(RoomNode)" style="ellipse;whiteSpace=wrap;html=1;" parent="WIyWlLk6GJQsqaUBKTNV-1" vertex="1">
          <mxGeometry x="-3080" y="240" width="120" height="80" as="geometry" />
        </mxCell>
        <mxCell id="dQN3qtKWZheF_oefbslF-2" value="StoneRoom&lt;br style=&quot;border-color: var(--border-color);&quot;&gt;(RoomNode)" style="ellipse;whiteSpace=wrap;html=1;" parent="WIyWlLk6GJQsqaUBKTNV-1" vertex="1">
          <mxGeometry x="-2760" y="240" width="120" height="80" as="geometry" />
        </mxCell>
        <mxCell id="dQN3qtKWZheF_oefbslF-5" value="Desert Texture&lt;br&gt;(SpriteNode)" style="ellipse;whiteSpace=wrap;html=1;" parent="WIyWlLk6GJQsqaUBKTNV-1" vertex="1">
          <mxGeometry x="-3150" y="380" width="120" height="80" as="geometry" />
        </mxCell>
        <mxCell id="dQN3qtKWZheF_oefbslF-7" style="rounded=0;orthogonalLoop=1;jettySize=auto;html=1;entryX=0.5;entryY=0;entryDx=0;entryDy=0;exitX=0.5;exitY=1;exitDx=0;exitDy=0;" parent="WIyWlLk6GJQsqaUBKTNV-1" source="dQN3qtKWZheF_oefbslF-5" target="dQN3qtKWZheF_oefbslF-8" edge="1">
          <mxGeometry relative="1" as="geometry">
            <mxPoint x="-3100" y="510" as="sourcePoint" />
          </mxGeometry>
        </mxCell>
        <mxCell id="dQN3qtKWZheF_oefbslF-8" value="Peepo&lt;br&gt;(Player)" style="ellipse;whiteSpace=wrap;html=1;" parent="WIyWlLk6GJQsqaUBKTNV-1" vertex="1">
          <mxGeometry x="-3180" y="530" width="120" height="80" as="geometry" />
        </mxCell>
        <mxCell id="dQN3qtKWZheF_oefbslF-9" value="Stone Texture&lt;br&gt;(SpriteNode)" style="ellipse;whiteSpace=wrap;html=1;" parent="WIyWlLk6GJQsqaUBKTNV-1" vertex="1">
          <mxGeometry x="-2710" y="400" width="120" height="80" as="geometry" />
        </mxCell>
        <mxCell id="dQN3qtKWZheF_oefbslF-10" style="rounded=0;orthogonalLoop=1;jettySize=auto;html=1;entryX=0.5;entryY=0;entryDx=0;entryDy=0;exitX=0.5;exitY=1;exitDx=0;exitDy=0;" parent="WIyWlLk6GJQsqaUBKTNV-1" source="dQN3qtKWZheF_oefbslF-2" target="dQN3qtKWZheF_oefbslF-9" edge="1">
          <mxGeometry relative="1" as="geometry">
            <mxPoint x="-2704" y="327" as="sourcePoint" />
            <mxPoint x="-2760" y="410" as="targetPoint" />
          </mxGeometry>
        </mxCell>
        <mxCell id="dQN3qtKWZheF_oefbslF-15" style="edgeStyle=orthogonalEdgeStyle;rounded=0;orthogonalLoop=1;jettySize=auto;html=1;entryX=0;entryY=0.5;entryDx=0;entryDy=0;endArrow=none;endFill=0;exitX=0.993;exitY=0.15;exitDx=0;exitDy=0;exitPerimeter=0;" parent="WIyWlLk6GJQsqaUBKTNV-1" source="dQN3qtKWZheF_oefbslF-16" edge="1">
          <mxGeometry relative="1" as="geometry">
            <mxPoint x="-2215" y="760" as="sourcePoint" />
            <Array as="points">
              <mxPoint x="-2195" y="732" />
              <mxPoint x="-2195" y="818" />
            </Array>
            <mxPoint x="-2175" y="818" as="targetPoint" />
          </mxGeometry>
        </mxCell>
        <mxCell id="dQN3qtKWZheF_oefbslF-16" value="enum &lt;b&gt;Layer&lt;/b&gt;" style="swimlane;fontStyle=0;childLayout=stackLayout;horizontal=1;startSize=26;fillColor=none;horizontalStack=0;resizeParent=1;resizeParentMax=0;resizeLast=0;collapsible=1;marginBottom=0;whiteSpace=wrap;html=1;" parent="WIyWlLk6GJQsqaUBKTNV-1" vertex="1">
          <mxGeometry x="-2360" y="720" width="140" height="80" as="geometry" />
        </mxCell>
        <mxCell id="dQN3qtKWZheF_oefbslF-17" value="Background&lt;br&gt;Air&lt;br&gt;LayerCount" style="text;strokeColor=none;fillColor=none;align=left;verticalAlign=top;spacingLeft=4;spacingRight=4;overflow=hidden;rotatable=0;points=[[0,0.5],[1,0.5]];portConstraint=eastwest;whiteSpace=wrap;html=1;" parent="dQN3qtKWZheF_oefbslF-16" vertex="1">
          <mxGeometry y="26" width="140" height="54" as="geometry" />
        </mxCell>
        <mxCell id="dQN3qtKWZheF_oefbslF-18" style="rounded=0;orthogonalLoop=1;jettySize=auto;html=1;entryX=1;entryY=0;entryDx=0;entryDy=0;dashed=1;exitX=0.5;exitY=1;exitDx=0;exitDy=0;" parent="WIyWlLk6GJQsqaUBKTNV-1" source="dQN3qtKWZheF_oefbslF-9" target="dQN3qtKWZheF_oefbslF-8" edge="1">
          <mxGeometry relative="1" as="geometry">
            <mxPoint x="-2880" y="540" as="sourcePoint" />
            <mxPoint x="-2753" y="667" as="targetPoint" />
          </mxGeometry>
        </mxCell>
        <mxCell id="pyp0VuEFBWGWA5Hz9J1n-0" value="Door&lt;br&gt;(SomeDoor)" style="ellipse;whiteSpace=wrap;html=1;" parent="WIyWlLk6GJQsqaUBKTNV-1" vertex="1">
          <mxGeometry x="-2950" y="550" width="120" height="80" as="geometry" />
        </mxCell>
        <mxCell id="pyp0VuEFBWGWA5Hz9J1n-2" style="rounded=0;orthogonalLoop=1;jettySize=auto;html=1;entryX=0.5;entryY=0;entryDx=0;entryDy=0;dashed=1;exitX=1;exitY=1;exitDx=0;exitDy=0;" parent="WIyWlLk6GJQsqaUBKTNV-1" source="dQN3qtKWZheF_oefbslF-5" target="pyp0VuEFBWGWA5Hz9J1n-0" edge="1">
          <mxGeometry relative="1" as="geometry">
            <mxPoint x="-2782" y="420" as="sourcePoint" />
            <mxPoint x="-3230" y="502" as="targetPoint" />
          </mxGeometry>
        </mxCell>
        <mxCell id="pyp0VuEFBWGWA5Hz9J1n-3" value="Door" style="swimlane;fontStyle=1;align=center;verticalAlign=top;childLayout=stackLayout;horizontal=1;startSize=26;horizontalStack=0;resizeParent=1;resizeParentMax=0;resizeLast=0;collapsible=1;marginBottom=0;whiteSpace=wrap;html=1;" parent="WIyWlLk6GJQsqaUBKTNV-1" vertex="1">
          <mxGeometry x="-1930" y="590" width="402" height="130" as="geometry" />
        </mxCell>
        <mxCell id="pyp0VuEFBWGWA5Hz9J1n-4" value="- mSprite: sf::Sprite" style="text;strokeColor=none;fillColor=none;align=left;verticalAlign=top;spacingLeft=4;spacingRight=4;overflow=hidden;rotatable=0;points=[[0,0.5],[1,0.5]];portConstraint=eastwest;whiteSpace=wrap;html=1;" parent="pyp0VuEFBWGWA5Hz9J1n-3" vertex="1">
          <mxGeometry y="26" width="402" height="26" as="geometry" />
        </mxCell>
        <mxCell id="pyp0VuEFBWGWA5Hz9J1n-5" value="" style="line;strokeWidth=1;fillColor=none;align=left;verticalAlign=middle;spacingTop=-1;spacingLeft=3;spacingRight=3;rotatable=0;labelPosition=right;points=[];portConstraint=eastwest;strokeColor=inherit;" parent="pyp0VuEFBWGWA5Hz9J1n-3" vertex="1">
          <mxGeometry y="52" width="402" height="8" as="geometry" />
        </mxCell>
        <mxCell id="pyp0VuEFBWGWA5Hz9J1n-6" value="+ explicit&lt;b&gt; SpriteNode&lt;/b&gt;(const sf::Texture&amp;amp;)&lt;br&gt;+ &lt;b&gt;SpriteNode&lt;/b&gt;(const sf::Texture&amp;amp;, const sf::IntRect&amp;amp;)&lt;br&gt;- override &lt;b&gt;drawCurrent&lt;/b&gt;(sf::RenderTarget, sf::RenderStates) const: void" style="text;strokeColor=none;fillColor=none;align=left;verticalAlign=top;spacingLeft=4;spacingRight=4;overflow=hidden;rotatable=0;points=[[0,0.5],[1,0.5]];portConstraint=eastwest;whiteSpace=wrap;html=1;" parent="pyp0VuEFBWGWA5Hz9J1n-3" vertex="1">
          <mxGeometry y="60" width="402" height="70" as="geometry" />
        </mxCell>
        <mxCell id="pyp0VuEFBWGWA5Hz9J1n-7" style="edgeStyle=orthogonalEdgeStyle;rounded=0;orthogonalLoop=1;jettySize=auto;html=1;entryX=0.485;entryY=-0.023;entryDx=0;entryDy=0;entryPerimeter=0;" parent="WIyWlLk6GJQsqaUBKTNV-1" source="WNt9tTBzEYhnYvB0Ojxt-49" target="pyp0VuEFBWGWA5Hz9J1n-3" edge="1">
          <mxGeometry relative="1" as="geometry" />
        </mxCell>
      </root>
    </mxGraphModel>
  </diagram>
</mxfile>
